inDegrees=no
num_controls=7
num_derivatives=13
num_iterations=87
num_multipliers=7
num_parameters=0
num_slacks=7
num_states=26
objective=0.445805
objective_accelerations=0.056829
objective_balance=0.003250
objective_effort=0.022486
objective_height=0.357720
objective_ligament=0.005521
solver_duration=1157.810469
status=Solve_Succeeded
success=true
DataType=double
version=3
OpenSimVersion=4.5
endheader
time	/jointset/ground_pelvis/pelvis_tilt/value	/jointset/ground_pelvis/pelvis_tx/value	/jointset/ground_pelvis/pelvis_ty/value	/jointset/hip_l/hip_flexion_l/value	/jointset/hip_l/hip_adduction_l/value	/jointset/hip_l/hip_rotation_l/value	/jointset/back/lumbar_extension/value	/jointset/patellofemoral_l/patellar_flexion_l/value	/jointset/knee_l/knee_flexion_l/value	/jointset/knee_l/knee_adduction_l/value	/jointset/knee_l/knee_rotation_l/value	/jointset/ankle_l/ankle_angle_l/value	/jointset/subtalar_l/subtalar_angle_l/value	/jointset/ground_pelvis/pelvis_tilt/speed	/jointset/ground_pelvis/pelvis_tx/speed	/jointset/ground_pelvis/pelvis_ty/speed	/jointset/hip_l/hip_flexion_l/speed	/jointset/hip_l/hip_adduction_l/speed	/jointset/hip_l/hip_rotation_l/speed	/jointset/back/lumbar_extension/speed	/jointset/patellofemoral_l/patellar_flexion_l/speed	/jointset/knee_l/knee_flexion_l/speed	/jointset/knee_l/knee_adduction_l/speed	/jointset/knee_l/knee_rotation_l/speed	/jointset/ankle_l/ankle_angle_l/speed	/jointset/subtalar_l/subtalar_angle_l/speed	/forceset/tau_hip_flexion_l	/forceset/tau_hip_adduction_l	/forceset/tau_hip_rotation_l	/forceset/tau_knee_flexion_l	/forceset/tau_ankle_angle_l	/forceset/tau_subtalar_angle_l	/forceset/tau_lumbar_extension	lambda_cid13_p0	lambda_cid13_p1	lambda_cid13_p2	lambda_cid13_p3	lambda_cid13_p4	lambda_cid13_p5	lambda_cid14_p0	/jointset/ground_pelvis/pelvis_tilt/accel	/jointset/ground_pelvis/pelvis_tx/accel	/jointset/ground_pelvis/pelvis_ty/accel	/jointset/hip_l/hip_flexion_l/accel	/jointset/hip_l/hip_adduction_l/accel	/jointset/hip_l/hip_rotation_l/accel	/jointset/back/lumbar_extension/accel	/jointset/patellofemoral_l/patellar_flexion_l/accel	/jointset/knee_l/knee_flexion_l/accel	/jointset/knee_l/knee_adduction_l/accel	/jointset/knee_l/knee_rotation_l/accel	/jointset/ankle_l/ankle_angle_l/accel	/jointset/subtalar_l/subtalar_angle_l/accel	gamma_cid13_p0	gamma_cid13_p1	gamma_cid13_p2	gamma_cid13_p3	gamma_cid13_p4	gamma_cid13_p5	gamma_cid14_p0
0.5	-0.3285183335871566	-0.0316755468118897	0.7626400830924842	1.077847629937567	-0.4371461654978012	-0.221724101276137	-0.2538945839615482	0.8086614952109579	0.8086614952109384	-0.1280265092188635	-0.1575055643199396	0.1194282458741198	-0.02660883947746535	-0.7437019956184447	-0.2004853225822798	-0.5225839194239924	2.422142174990525	-0.2107346806903306	0.747057400765782	-0.124094413859285	1.993756463912647	1.993756463912626	0.1217742444822217	-0.09037367508720238	0.4861102963437579	0.008888871376095724	-0.1652430656241643	0.02934640229426972	-0.01120688165399665	-0.21953877649351	0.06351055809934991	0.03675110218343175	0.1650705576746943	-12.474888549301	-16.80115057386913	5.797248730273009	-6.114793032542699	-523.3942008688393	-56.84736281489517	-25.04552154601857	0.752164798271293	0.5981242113074549	-0.4448830826003317	-1.36357391523114	0.734423008186977	-0.2434164798271898	1.145487336940891	-1.303205313993338	-1.30320531399334	0.09320110241744353	0.1426054979694335	-0.4938406659400233	0.5507936952971152	-5.435666513801857e-07	-4.702770016937169e-07	2.712916884351816e-06	1.310097706679597e-07	-6.25538094516544e-07	-5.780324074455771e-08	-4.453904635869334e-07
0.51	-0.335915992608499	-0.03365032276837401	0.7573932227275517	1.101996047746156	-0.4392177668144635	-0.2142647124431256	-0.2550796030243135	0.8285303934687729	0.828530393468797	-0.1268081262188409	-0.1584015904469238	0.1242631960334638	-0.0264942815864834	-0.7357294940683976	-0.1944599188432066	-0.5266685879875094	2.407200094441515	-0.2035593039371758	0.7447047945356218	-0.112966826547458	1.979717937453767	1.979717937453755	0.1219122353537245	-0.088812912442672	0.4807800277584201	0.01401029273362467	-0.1704829495813651	0.03026281362366348	-0.01130593604266226	-0.2224598291409501	0.06283803202808801	0.03698185915058012	0.1690686785330252	-12.89678721477566	-16.7948742216695	5.758984264630168	-5.930558857603163	-527.0802643397992	-56.41570724207969	-24.12857384710761	0.8347748784410092	0.6062703782224885	-0.3724458037504373	-1.610795787659731	0.7127254940548442	-0.2489014357679937	1.087780250203094	-1.499876433912732	-1.499876433911525	-0.02437973417189057	0.1661542692082611	-0.5675728314380917	0.4906977572450892	-5.27960688058693e-07	-3.765509607807075e-07	2.729384357365327e-06	1.488034147383261e-07	-5.983930854683731e-07	1.369895467105283e-08	-4.366529327060572e-07
0.52	-0.3432309302053229	-0.03556454030286493	0.7521090782648794	1.125984790616684	-0.4412168882665579	-0.2068323934206406	-0.2561550690495732	0.8482497664376036	0.8482497664376326	-0.1255880588728834	-0.1592813404231024	0.1290418529316363	-0.02632893320167342	-0.7271577107155736	-0.1883736381836058	-0.5300407389719161	2.390207187375534	-0.1962387077770286	0.7416434386591716	-0.1021838063596481	1.963851406111794	1.96385140611179	0.1221111136776898	-0.08711844493760987	0.4748516441087891	0.01904697014172574	-0.1757228335384166	0.03117922495309664	-0.01140499043194317	-0.2253808817883331	0.06216550595683816	0.03721261611779317	0.1730667993914873	-13.32170674199545	-16.7885070360079	5.721207469105612	-5.781061341421573	-530.8405665095974	-56.04177004409913	-23.21326539638364	0.8720211588265671	0.6102995954130152	-0.3023795667782826	-1.773739218625408	0.7634668895854027	-0.3851664090852472	1.076573912137519	-1.668806290612136	-1.668806290612137	0.1053785929098692	0.1693464700757156	-0.613463678798582	0.533844905411533	-5.187335705041822e-07	-3.527885903700231e-07	2.722966704675634e-06	1.520214370299412e-07	-5.759849787402288e-07	7.416035690911407e-08	-4.358742750035111e-07
0.53	-0.3504571775071889	-0.0374175019412959	0.746794722523436	1.149793641289534	-0.4431423052346815	-0.1994337284408478	-0.2571238878365528	0.8678021576310124	0.8678021576310437	-0.1243660157167231	-0.1601434979172026	0.1337588099547559	-0.02611360767758021	-0.7179818985644962	-0.1821992576695139	-0.5327150232231171	2.371230642882195	-0.1888417954043086	0.7380152400070695	-0.0915960081453069	1.946395202548988	1.946395202549009	0.1222775373947802	-0.08529316518091933	0.4684946435825768	0.02400774427409952	-0.1813165197451605	0.03188095611002351	-0.01141366159140546	-0.2278633767891969	0.06110445481408375	0.03752549963313206	0.1773639093707522	-13.85969270636199	-16.7993130170174	5.687654893388026	-5.659230954646445	-534.5332726294805	-55.69916231867712	-22.30123611342247	0.9567745740492033	0.6239527968715053	-0.2327577832445109	-2.009533042605432	0.7279192307920291	-0.3631672251211652	1.047474209726289	-1.818684799203311	-1.818684799199695	-0.03068871646164877	0.1926495469299598	-0.6535792924116645	0.4753721804772624	-5.005973382867043e-07	-2.534972641334297e-07	2.744334787725503e-06	1.758906808073728e-07	-5.538921727867213e-07	1.483491903357743e-07	-4.250185578580921e-07
0.54	-0.3575883840213786	-0.03920813067109349	0.7414570629536902	1.173402742321882	-0.4449937299151411	-0.1920736495739402	-0.257987310354653	0.887173055306778	0.8871730553068007	-0.1231429009189177	-0.1609866964500324	0.1384108447620401	-0.02584903870949802	-0.7081495531813838	-0.1759070564569287	-0.5347015046324354	2.350257259272149	-0.1814402502445296	0.7339262160810357	-0.08110455258520774	1.927552702582641	1.927552702582687	0.1223254420090633	-0.08332665268565975	0.4618672009412034	0.02889565893955198	-0.1869102059517774	0.03258268726698635	-0.01142233275106652	-0.2303458717900395	0.06004340367133428	0.03783838314851928	0.1816610193501312	-14.40125436408658	-16.81041541011087	5.655204887559518	-5.570622587156655	-538.3069381667717	-55.41634322173961	-21.39549405567078	1.003327805233476	0.6338637351117399	-0.1648189984017072	-2.17310704196695	0.7643934469971699	-0.4773314638716626	1.057305381289186	-1.946065571320496	-1.946065571320501	0.0816747723483411	0.1975930177894435	-0.6675521018307312	0.5192730120272548	-4.726042132506245e-07	-7.06419867702978e-08	2.79644453584893e-06	2.226080845265591e-07	-5.321482102434504e-07	2.377258199710975e-07	-4.030137536694943e-07
0.55	-0.3646185574264513	-0.04093551593767088	0.736103007445991	1.196792857055835	-0.4467708950799711	-0.1847564584164784	-0.2587467311292925	0.9063482528274869	0.9063482528275342	-0.1219198660337238	-0.1618090939185108	0.1429948523835265	-0.02553592782695257	-0.6978176397579138	-0.169575627472121	-0.5359898987179617	2.327478082737502	-0.1739855127895995	0.7294084466344309	-0.07085258540359753	1.907217823907939	1.907217823907958	0.1222719073884959	-0.0811394366525114	0.4548449074280748	0.03369710013543627	-0.1917583424532459	0.03294705765774625	-0.01140402461007213	-0.233428093274822	0.05942980836193209	0.03787714728660569	0.1852567593380781	-14.80727712401073	-16.71635797065024	5.59474626515994	-5.289052606183045	-541.9323036235627	-55.05541207886171	-20.50072943375616	1.058180534727163	0.6319875063440263	-0.09299894276770572	-2.37354052087636	0.7367305444404241	-0.4548694855211599	0.9981949274944281	-2.117467460987755	-2.117467460991898	-0.05022542314297288	0.2318608046027116	-0.7329523506684393	0.4558318738244519	-4.457395371835633e-07	5.150528523651212e-08	2.794360525456851e-06	2.510169645827432e-07	-5.072866556584924e-07	3.112510752686435e-07	-3.838879156487544e-07
